<svg xmlns="http://www.w3.org/2000/svg" width="23" height="21.272" viewBox="0 0 23 21.272">
  <g id="comments" transform="translate(-0.5 -1.5)" opacity="0.5">
    <path id="Path_72049" data-name="Path 72049" d="M25,9a1.467,1.467,0,0,1,1.467,1.467v8.067A1.467,1.467,0,0,1,25,20H23.533v3.667L18.4,20H14" transform="translate(-3.467 -1.867)" fill="none" stroke="#212121" stroke-linecap="square" stroke-miterlimit="10" stroke-width="1"/>
    <path id="Path_72050" data-name="Path 72050" d="M17.133,2H2.467A1.467,1.467,0,0,0,1,3.467V13a1.467,1.467,0,0,0,1.467,1.467h2.2V19.6l5.867-5.133h6.6A1.467,1.467,0,0,0,18.6,13V3.467A1.467,1.467,0,0,0,17.133,2Z" transform="translate(0)" fill="none" stroke="#212121" stroke-linecap="square" stroke-miterlimit="10" stroke-width="1"/>
  </g>
</svg>
