<svg xmlns="http://www.w3.org/2000/svg" width="13.599" height="8.5" viewBox="0 0 13.599 8.5">
  <g id="Group_55418" data-name="Group 55418" opacity="0.53">
    <path id="Path_59543" data-name="Path 59543" d="M1839.479,4408.61l2.22,3.77a.2.2,0,0,1,0,.23l-2.22,3.78a.251.251,0,0,0,.24.36h1.95a.281.281,0,0,0,.24-.13l2.36-4.01a.235.235,0,0,0,0-.23l-2.36-4a.281.281,0,0,0-.24-.13h-1.95A.251.251,0,0,0,1839.479,4408.61Z" transform="translate(-1839.45 -4408.25)"/>
    <path id="Path_59544" data-name="Path 59544" d="M1835.114,4408.61l2.22,3.77a.235.235,0,0,1,0,.23l-2.22,3.78a.243.243,0,0,0,.23.36h1.96a.281.281,0,0,0,.24-.13l2.35-4.01a.235.235,0,0,0,0-.23l-2.35-4a.281.281,0,0,0-.24-.13h-1.96A.243.243,0,0,0,1835.114,4408.61Z" transform="translate(-1830.705 -4408.25)"/>
    <path id="Path_59545" data-name="Path 59545" d="M1830.739,4408.61l2.22,3.77a.235.235,0,0,1,0,.23l-2.23,3.78a.251.251,0,0,0,.24.36h1.96a.253.253,0,0,0,.23-.13l2.36-4.01a.235.235,0,0,0,0-.23l-2.36-4a.253.253,0,0,0-.23-.13h-1.96A.243.243,0,0,0,1830.739,4408.61Z" transform="translate(-1821.95 -4408.25)"/>
  </g>
</svg>
