<svg xmlns="http://www.w3.org/2000/svg" width="214.187" height="221.049" viewBox="0 0 214.187 221.049">
  <g id="Group_52600" data-name="Group 52600" transform="translate(-523.51 8472.64)">
    <path id="Path_49031" data-name="Path 49031" d="M563.987,124.718c9.283-24.657,27.528-29.156,37.709-29.15,29.416.006,40.774,9.62,59.671,31.245,17.72,20.28,30.366,17.223,40.541,25.006,16.589,12.7,26.015,56.529-6.122,83.332-45.558,38.007-74.825,40.315-114.2,28.045-26.551-8.275-48.8-30.889-49.34-55.928C531.216,158.891,553.946,151.386,563.987,124.718Z" transform="translate(11.853 -8567.814)" fill="#b3ffd1"/>
    <path id="Path_49032" data-name="Path 49032" d="M781.9,159.224l-.123-.046a2.13,2.13,0,0,1-1.248-2.734l9.569-25.6a2.129,2.129,0,0,1,2.734-1.248l.123.045a2.13,2.13,0,0,1,1.247,2.735l-9.568,25.6A2.125,2.125,0,0,1,781.9,159.224Z" transform="translate(-64.57 -8578.252)" fill="#edb82c"/>
    <path id="Path_49033" data-name="Path 49033" d="M777.207,153.312l-.123-.039a2.128,2.128,0,0,1-1.455-2.631l8.049-28.051a2.128,2.128,0,0,1,2.631-1.455l.123.039a2.128,2.128,0,0,1,1.455,2.631l-8.056,28.052A2.119,2.119,0,0,1,777.207,153.312Z" transform="translate(-63.077 -8575.662)" fill="#edb82c"/>
    <path id="Path_49034" data-name="Path 49034" d="M775.334,164.731l-.123-.045a2.131,2.131,0,0,1-1.248-2.735l10.221-27.333a2.13,2.13,0,0,1,2.735-1.248l.122.045a2.131,2.131,0,0,1,1.248,2.735l-10.221,27.333A2.116,2.116,0,0,1,775.334,164.731Z" transform="translate(-62.548 -8579.414)" fill="#edb82c"/>
    <path id="Path_49035" data-name="Path 49035" d="M772.162,149.062l-.123-.039a2.128,2.128,0,0,1-1.455-2.631l8.049-28.052a2.127,2.127,0,0,1,2.631-1.454l.123.039a2.127,2.127,0,0,1,1.454,2.631l-8.049,28.051A2.123,2.123,0,0,1,772.162,149.062Z" transform="translate(-61.524 -8574.354)" fill="#edb82c"/>
    <path id="Path_49036" data-name="Path 49036" d="M767.626,151.694l-.129-.019a2.131,2.131,0,0,1-1.746-2.451l4.849-28.775a2.129,2.129,0,0,1,2.45-1.745l.13.019a2.13,2.13,0,0,1,1.745,2.451l-4.849,28.775A2.129,2.129,0,0,1,767.626,151.694Z" transform="translate(-60.052 -8574.93)" fill="#edb82c"/>
    <path id="Path_49037" data-name="Path 49037" d="M763.871,154.65l-.13-.013a2.123,2.123,0,0,1-1.913-2.314l2.773-29.053a2.124,2.124,0,0,1,2.314-1.914l.129.012a2.124,2.124,0,0,1,1.914,2.315l-2.773,29.053A2.124,2.124,0,0,1,763.871,154.65Z" transform="translate(-58.85 -8575.753)" fill="#edb82c"/>
    <path id="Path_49038" data-name="Path 49038" d="M772.334,146.229l-.129-.019a2.13,2.13,0,0,1-1.746-2.451l4.849-28.775a2.129,2.129,0,0,1,2.45-1.746l.129.019a2.13,2.13,0,0,1,1.745,2.451l-4.849,28.775A2.124,2.124,0,0,1,772.334,146.229Z" transform="translate(-61.501 -8573.246)" fill="#edb82c"/>
    <path id="Path_49039" data-name="Path 49039" d="M757.873,158.069l-.129-.013a2.124,2.124,0,0,1-1.914-2.314l2.774-29.053a2.124,2.124,0,0,1,2.314-1.914l.13.012a2.124,2.124,0,0,1,1.914,2.315l-2.773,29.053A2.124,2.124,0,0,1,757.873,158.069Z" transform="translate(-57.003 -8576.805)" fill="#edb82c"/>
    <path id="Path_49040" data-name="Path 49040" d="M755.113,152.546l-.129-.006a2.126,2.126,0,0,1-2.037-2.211l1.17-29.157a2.124,2.124,0,0,1,2.211-2.036l.129.006a2.126,2.126,0,0,1,2.037,2.211l-1.17,29.157A2.129,2.129,0,0,1,755.113,152.546Z" transform="translate(-56.118 -8575.071)" fill="#edb82c"/>
    <path id="Path_49041" data-name="Path 49041" d="M781.555,148.36a2.752,2.752,0,0,0-1.066-2.444,4.629,4.629,0,0,1-.1,1.461c-1.015,4.384-8.132,6.471-15.884,4.668s-13.214-6.814-12.2-11.2a4.858,4.858,0,0,1,.53-1.318,2.727,2.727,0,0,0-1.965,1.7l-2.217,27.4a2.3,2.3,0,0,0,.032.563.021.021,0,0,1-.007.012c-.343,1.481,4.39,3.84,10.571,5.276,4.648,1.08,8.786,1.325,10.706.756a.34.34,0,0,0,.071-.026,1.586,1.586,0,0,0,.989-.666,2.1,2.1,0,0,0,.388-.633Z" transform="translate(-54.793 -8581.352)" fill="#275d89"/>
    <path id="Path_49042" data-name="Path 49042" d="M537.762,192.413l-11.734,2.521-3.129.673-11.734,2.521,11.094,35.563a.292.292,0,0,0,0,.078c.265,1.222,4.959,1.248,10.486.058s9.8-3.142,9.535-4.357c-.006-.026-.026-.045-.032-.071Z" transform="translate(18.335 -8597.637)" fill="#e06738"/>
    <path id="Path_49043" data-name="Path 49043" d="M536.184,179.932l-13.609,2.922-3.626.783-13.609,2.922,12.866,41.253a.4.4,0,0,0,0,.091c.3,1.415,5.747,1.448,12.16.064s11.365-3.64,11.061-5.056a.407.407,0,0,0-.039-.078Z" transform="translate(20.129 -8593.793)" fill="#fdf0b9"/>
    <path id="Path_49044" data-name="Path 49044" d="M541.432,196.9l-.3.019a1.152,1.152,0,0,1-1.235-1.067l-.756-10.195a1.151,1.151,0,0,1,1.066-1.235l.3-.019a1.151,1.151,0,0,1,1.235,1.066l.756,10.195A1.162,1.162,0,0,1,541.432,196.9Z" transform="translate(9.722 -8595.17)"/>
    <path id="Path_49045" data-name="Path 49045" d="M520.848,186.174c9.513-2.044,16.74-5.95,16.145-8.725s-8.791-3.368-18.3-1.325-16.741,5.949-16.145,8.724S511.335,188.217,520.848,186.174Z" transform="translate(21 -8592.246)" fill="#e06738"/>
    <g id="Group_52212" data-name="Group 52212" transform="translate(530.058 -8404.041)">
      <path id="Path_49046" data-name="Path 49046" d="M511.972,201.932s3.73-5.269,6.976-4.88,3.872,1.48,8.256.246,4.862-3.569,8.947-3.116c2.864.317,6.09,3.109,6.09,3.109l2.386,36.876-25.148,5.4Z" transform="translate(-511.972 -194.123)" fill="#275d89"/>
    </g>
    <path id="Path_49047" data-name="Path 49047" d="M539.264,152.059a1.726,1.726,0,0,1,.026.188l.821,11.106.594,7.965c-.782.362-1.635.711-2.541,1.054l-.666-9.025-.8-10.913a1.3,1.3,0,0,1,2.567-.375Z" transform="translate(10.474 -8584.895)"/>
    <g id="Group_52214" data-name="Group 52214" transform="translate(589.602 -8432.811)">
      <path id="Path_49048" data-name="Path 49048" d="M609.906,152.551H668.64a11.9,11.9,0,0,1,11.9,11.9V287.739a11.9,11.9,0,0,1-11.9,11.9H609.906a11.9,11.9,0,0,1-11.9-11.9V164.44A11.892,11.892,0,0,1,609.906,152.551Z" transform="translate(-598.01 -152.551)"/>
      <path id="Path_49049" data-name="Path 49049" d="M613.737,160.267h55.818a8.012,8.012,0,0,1,8.01,8.01V288.654a8.013,8.013,0,0,1-8.01,8.01H613.737a8.012,8.012,0,0,1-8.01-8.01V168.277A8.008,8.008,0,0,1,613.737,160.267Z" transform="translate(-600.386 -154.927)" fill="#31c46c"/>
      <path id="Path_49050" data-name="Path 49050" d="M617.783,204.957h52.909a3.639,3.639,0,0,1,3.639,3.64V239.66a3.639,3.639,0,0,1-3.639,3.64H617.783a3.639,3.639,0,0,1-3.64-3.64V208.6A3.639,3.639,0,0,1,617.783,204.957Z" transform="translate(-602.978 -168.689)" fill="#fff"/>
      <path id="Path_49051" data-name="Path 49051" d="M617.783,268.076h52.909a3.639,3.639,0,0,1,3.639,3.64v12.135a3.639,3.639,0,0,1-3.639,3.64H617.783a3.639,3.639,0,0,1-3.64-3.64V271.716A3.639,3.639,0,0,1,617.783,268.076Z" transform="translate(-602.978 -188.125)" fill="#fff"/>
      <path id="Path_49052" data-name="Path 49052" d="M617.783,303.845h52.909a3.639,3.639,0,0,1,3.639,3.64v12.135a3.639,3.639,0,0,1-3.639,3.64H617.783a3.639,3.639,0,0,1-3.64-3.64V307.485A3.639,3.639,0,0,1,617.783,303.845Z" transform="translate(-602.978 -199.139)" fill="#fff"/>
      <g id="Group_52213" data-name="Group 52213" transform="translate(11.165 129.459)">
        <path id="Path_49053" data-name="Path 49053" d="M617.783,339.613h52.909a3.639,3.639,0,0,1,3.639,3.64v12.134a3.639,3.639,0,0,1-3.639,3.64H617.783a3.639,3.639,0,0,1-3.64-3.64V343.253A3.644,3.644,0,0,1,617.783,339.613Z" transform="translate(-614.143 -339.613)" fill="#32b768"/>
      </g>
      <path id="Path_49054" data-name="Path 49054" d="M669.445,210.627H631.179a60.5,60.5,0,0,0,0,8.036c0,3.343,8.566,6.051,19.136,6.051s19.136-2.709,19.136-6.051A67.721,67.721,0,0,0,669.445,210.627Z" transform="translate(-608.177 -170.435)" fill="#edb82c"/>
      <path id="Path_49055" data-name="Path 49055" d="M667.619,209.021c1.817-.1,3.3,1.817,2.689,2.981s-2.877,2.036-3.62,2.256c-1.7.5-.472,3.116-3.672,2.341-1.655-.4-2.146.724-3.065,1.622s-3.368.272-5.663-.724-4.286,1.8-6.51,1.532-4.208-1.351-5.663-.808-2.295,0-4.06-1.713-3.523.633-5.127,0-1-2.165-2.754-2.974-3.523-1.112-3.523-2.12c0-2.282,3.491-2.851,3.491-2.851Z" transform="translate(-606.83 -169.799)" fill="#e06738"/>
      <path id="Path_49056" data-name="Path 49056" d="M669.51,199.811c0,7.008-8.566,8.54-19.136,8.54s-19.136-1.526-19.136-8.54,8.566-12.7,19.136-12.7S669.51,192.8,669.51,199.811Z" transform="translate(-608.242 -163.194)" fill="#edb82c"/>
      <path id="Path_49057" data-name="Path 49057" d="M665.126,172.33H638.368a1.338,1.338,0,0,1,0-2.676h26.759a1.338,1.338,0,0,1,0,2.676Z" transform="translate(-610.026 -157.818)" fill="#0e7f3d"/>
      <path id="Path_49058" data-name="Path 49058" d="M667.341,244.429H632.586a1.338,1.338,0,0,1,0-2.677h34.762a1.338,1.338,0,1,1-.006,2.677Z" transform="translate(-608.245 -180.019)" fill="#0e7f3d"/>
      <path id="Path_49059" data-name="Path 49059" d="M663.767,251.388H641.889a1.338,1.338,0,0,1,0-2.677h21.878a1.338,1.338,0,0,1,0,2.677Z" transform="translate(-611.11 -182.162)" fill="#0e7f3d"/>
      <path id="Path_49060" data-name="Path 49060" d="M630.883,285.226h-7.952a1.645,1.645,0,0,1-1.642-1.642v-7.952a1.644,1.644,0,0,1,1.642-1.642h7.952a1.644,1.644,0,0,1,1.642,1.642v7.952A1.645,1.645,0,0,1,630.883,285.226Z" transform="translate(-605.178 -189.946)" fill="#0e7f3d"/>
      <path id="Path_49061" data-name="Path 49061" d="M666.843,277.592H643.175a.885.885,0,1,1,0-1.771h23.668a.885.885,0,1,1,0,1.771Z" transform="translate(-611.645 -190.51)" fill="#32b768"/>
      <path id="Path_49062" data-name="Path 49062" d="M666.843,282.683H643.175a.885.885,0,1,1,0-1.771h23.668a.885.885,0,1,1,0,1.771Z" transform="translate(-611.645 -192.078)" fill="#32b768"/>
      <path id="Path_49063" data-name="Path 49063" d="M663.391,287.606H643.175a.886.886,0,0,1,0-1.772h20.216a.886.886,0,0,1,0,1.772Z" transform="translate(-611.645 -193.593)" fill="#32b768"/>
      <path id="Path_49064" data-name="Path 49064" d="M630.883,320.994h-7.952a1.645,1.645,0,0,1-1.642-1.642V311.4a1.645,1.645,0,0,1,1.642-1.642h7.952a1.645,1.645,0,0,1,1.642,1.642v7.952A1.645,1.645,0,0,1,630.883,320.994Z" transform="translate(-605.178 -200.96)" fill="#0e7f3d"/>
      <path id="Path_49065" data-name="Path 49065" d="M666.843,313.379H643.175a.885.885,0,1,1,0-1.771h23.668a.885.885,0,1,1,0,1.771Z" transform="translate(-611.645 -201.53)" fill="#32b768"/>
      <path id="Path_49066" data-name="Path 49066" d="M666.843,318.47H643.175a.885.885,0,1,1,0-1.771h23.668a.885.885,0,1,1,0,1.771Z" transform="translate(-611.645 -203.098)" fill="#32b768"/>
      <path id="Path_49067" data-name="Path 49067" d="M663.391,323.356H643.175a.886.886,0,0,1,0-1.772h20.216a.886.886,0,0,1,0,1.772Z" transform="translate(-611.645 -204.602)" fill="#32b768"/>
    </g>
    <path id="Path_49068" data-name="Path 49068" d="M747.142,303.316c-4.273-7.757-5.489-29.434-8.392-41.478-4.693-19.492-13.828-18.219-18.715-16.208a8.663,8.663,0,0,0-6.562-3.052c-5.321,0-5.275,2.5-6.853,2.774-1.183.207-3.626-.853-7.014-.078-3.407.782-4.791,3.4-5.928,4.253l-4.2-15.677a8.946,8.946,0,0,0-17.281,4.635l11.314,42.184-8.948-6.07a8.946,8.946,0,0,0-10.047,14.8l24.807,16.841c5.6,3.976,12.878,9.568,15.554,13.538,4.591,6.807,11.417,35.2,11.417,35.2,34.516,8.236,43.367-14.778,43.367-14.778Z" transform="translate(-27.678 -8608.354)" fill="#f0c7a9"/>
    <path id="Path_49069" data-name="Path 49069" d="M780.249,358.419,775.782,344.5a4.76,4.76,0,0,0-4.881-3.343l-26.713,2.127a4.4,4.4,0,0,0-.937.188l-.356-1-1.862,2.431a4.829,4.829,0,0,0-.349.459l-.064.091.006.013a5.19,5.19,0,0,0-.465.905,4.923,4.923,0,0,0-.071,3.258l4.467,13.919a4.759,4.759,0,0,0,4.881,3.342l26.713-2.127A4.831,4.831,0,0,0,780.249,358.419Z" transform="translate(-52.084 -8643.435)" fill="#0e7f3d"/>
    <path id="Path_49070" data-name="Path 49070" d="M794.154,361.018l4.144,10.6s4.286-19.233-6.516-25.627Z" transform="translate(-68.076 -8644.929)"/>
    <path id="Path_49071" data-name="Path 49071" d="M776.815,361.437l-25.019,2a4.536,4.536,0,0,1-4.591-3.361l-4.253-13.939c-.912-2.993.956-6.1,3.82-6.323l25.02-2a4.534,4.534,0,0,1,4.59,3.361l4.254,13.939C781.548,358.108,779.673,361.211,776.815,361.437Z" transform="translate(-52.968 -8642.406)" fill="#31c46c"/>
    <path id="Path_49072" data-name="Path 49072" d="M739.13,366.938s-9.723,4.176-7.072,14.21c0,0-7.435,3.33-9.019-4.512s-1.939-21.6,11.43-24.5Z" transform="translate(-46.671 -8646.821)"/>
    <path id="Path_49073" data-name="Path 49073" d="M706.586,252.187l5.761,19.55" transform="translate(-41.842 -8616.043)" fill="none" stroke="#000" stroke-linecap="round" stroke-miterlimit="10" stroke-width="1.756"/>
    <path id="Path_49074" data-name="Path 49074" d="M727.848,253.924a41.085,41.085,0,0,1,5.954,17.145" transform="translate(-48.389 -8616.577)" fill="none" stroke="#000" stroke-linecap="round" stroke-miterlimit="10" stroke-width="1.756"/>
    <path id="Path_49075" data-name="Path 49075" d="M746.633,254.354a41.085,41.085,0,0,1,5.954,17.145" transform="translate(-54.174 -8616.71)" fill="none" stroke="#000" stroke-linecap="round" stroke-miterlimit="10" stroke-width="1.756"/>
    <path id="Path_49076" data-name="Path 49076" d="M546.028,318.384a9.277,9.277,0,1,0-9.277-9.277A9.277,9.277,0,0,0,546.028,318.384Z" transform="translate(10.456 -8630.714)" fill="#0e7f3d"/>
    <path id="Path_49077" data-name="Path 49077" d="M804.217,232.655c.336-1.176-1.37-2.761-4.125-4.073a1.386,1.386,0,0,1-.782-1.416c.356-3.032-.084-5.321-1.26-5.657s-2.761,1.371-4.073,4.125a1.385,1.385,0,0,1-1.415.782c-3.033-.355-5.321.084-5.657,1.261s1.37,2.761,4.125,4.073a1.386,1.386,0,0,1,.782,1.416c-.356,3.032.084,5.321,1.261,5.657s2.76-1.371,4.073-4.125a1.385,1.385,0,0,1,1.415-.782C801.586,234.271,803.874,233.832,804.217,232.655Z" transform="translate(-66.562 -8606.583)" fill="#32b768"/>
    <path id="Path_49078" data-name="Path 49078" d="M605.356,101.91c-.259-1.2-2.515-1.784-5.566-1.629a1.376,1.376,0,0,1-1.358-.873c-1.132-2.838-2.6-4.642-3.795-4.383s-1.785,2.515-1.629,5.567a1.375,1.375,0,0,1-.873,1.357c-2.838,1.132-4.642,2.606-4.383,3.8s2.515,1.784,5.566,1.629a1.375,1.375,0,0,1,1.358.873c1.131,2.838,2.6,4.642,3.795,4.383s1.784-2.515,1.629-5.566a1.376,1.376,0,0,1,.873-1.357C603.811,104.58,605.614,103.105,605.356,101.91Z" transform="translate(-5.241 -8567.64)" fill="#275d89"/>
  </g>
</svg>
