<svg xmlns="http://www.w3.org/2000/svg" xmlns:xlink="http://www.w3.org/1999/xlink" width="25" height="25" viewBox="0 0 25 25">
  <g id="Mask_Group_26" data-name="Mask Group 26" transform="translate(-296 -820)" clip-path="url(#clip-path)">
    <g id="_4" data-name="4" transform="translate(295.734 819.482)">
      <path id="Path_48285" data-name="Path 48285" d="M13.547,3.683a1.33,1.33,0,0,0-1.564,0L5.053,8.723V21.276a1.33,1.33,0,0,0,1.33,1.33H8.776V15.957A2.925,2.925,0,0,1,11.7,13.032h2.128a2.925,2.925,0,0,1,2.925,2.925v6.649h2.394a1.33,1.33,0,0,0,1.33-1.33V8.723l-6.931-5.04Zm8.526,6.2L24,11.284a.8.8,0,0,0,.938-1.291l-10.45-7.6a2.925,2.925,0,0,0-3.441,0L.595,9.992a.8.8,0,0,0,.938,1.291l1.924-1.4V21.276A2.925,2.925,0,0,0,6.383,24.2H19.148a2.925,2.925,0,0,0,2.925-2.925ZM15.159,22.606V15.957a1.33,1.33,0,0,0-1.33-1.33H11.7a1.33,1.33,0,0,0-1.33,1.33v6.649Z" fill="#a4a4a4" fill-rule="evenodd"/>
    </g>
  </g>
</svg>
