<svg id="بارسل" xmlns="http://www.w3.org/2000/svg" width="185.19" height="124.54" viewBox="0 0 185.19 124.54">
  <path id="Path_58986" data-name="Path 58986" d="M163.983,325.64l-6.771,9.642H84.92l-6.75-9.642Z" transform="translate(-54.624 -227.552)" fill="#275d89"/>
  <path id="Path_58987" data-name="Path 58987" d="M473.924,334.823l-.31.428H440.79l6.738-9.651H468.6l-6.473,9.223Z" transform="translate(-308.017 -227.524)" fill="#275d89"/>
  <path id="Path_58988" data-name="Path 58988" d="M537.532,285.95l-8.076,11.5-.3.452-6.449,9.211-.322.431H510.6l6.771-9.642,8.377-11.955Z" transform="translate(-356.8 -199.818)" fill="#275d89"/>
  <path id="Path_58989" data-name="Path 58989" d="M490.739,203.71l-.142.217-23.1,32.989-6.759,9.648H448.96l6.738-9.648L478.94,203.71Z" transform="translate(-313.727 -142.349)" fill="#275d89"/>
  <path id="Path_58990" data-name="Path 58990" d="M257.11,285.95h11.8l-14.522,20.736-7.907-5.542Z" transform="translate(-172.237 -199.818)" fill="#275d89"/>
  <path id="Path_58991" data-name="Path 58991" d="M187.264,285.95h11.778l-14.525,20.736-7.907-5.542Z" transform="translate(-123.412 -199.818)" fill="#275d89"/>
  <path id="Path_58992" data-name="Path 58992" d="M327.05,285.95h11.777l-14.5,20.712-7.907-5.542Z" transform="translate(-221.11 -199.818)" fill="#275d89"/>
  <path id="Path_58993" data-name="Path 58993" d="M408.556,285.95l-1.994,2.849-12.555,17.931-7.907-5.506,8.741-12.491,1.952-2.783Z" transform="translate(-269.801 -199.818)" fill="#275d89"/>
  <path id="Path_58994" data-name="Path 58994" d="M391.586,317.6l-1.994,2.849-2.741,3.922-1.051,1.5-2.657,3.792H371.38l2.25-3.214,1.048-1.5,3.193-4.563,1.949-2.786Z" transform="translate(-259.515 -221.934)" fill="#275d89"/>
  <g id="Group_53461" data-name="Group 53461" transform="translate(31.263 111.787)">
    <path id="Path_58995" data-name="Path 58995" d="M112.525,377.489v6.639h-5.19a8.185,8.185,0,0,1-1.991-.2,2.1,2.1,0,0,1-1.163-.7,2.188,2.188,0,0,1-.392-1.389,9.113,9.113,0,0,1,.127-1.367c.084-.539.181-1.054.286-1.539l1,.054-.12.982a13.146,13.146,0,0,0-.16,1.581,1.234,1.234,0,0,0,.512,1.108,3.557,3.557,0,0,0,1.837.337h4v-5.509h1.262Zm-5.657-1.289H108v1.289h-1.13Zm1.78,0h1.115v1.289h-1.115Z" transform="translate(-103.79 -374.67)" fill="#fff"/>
    <path id="Path_58996" data-name="Path 58996" d="M142.541,379.463v1.13H140.02V371.14h1.262v8.326h1.262Z" transform="translate(-129.107 -371.134)" fill="#fff"/>
    <path id="Path_58997" data-name="Path 58997" d="M153.607,385.989v1.13H148.39v-1.13h1.979V380.48h1.262v5.509h1.979Zm-3.214,2.19H151.6v1.3h-1.208Z" transform="translate(-134.956 -377.661)" fill="#fff"/>
    <path id="Path_58998" data-name="Path 58998" d="M165.71,398.77h3.319v1.13H165.71Z" transform="translate(-147.059 -390.441)" fill="#fff"/>
    <path id="Path_58999" data-name="Path 58999" d="M182.613,380.549a2.178,2.178,0,0,1,.6,1.732v4.527H176.73v-1.13h5.232v-3.265a1.138,1.138,0,0,0-1.3-1.274q-.583,0-2.747.214l-.039-.889c.479-.114,1.015-.214,1.615-.3a10.956,10.956,0,0,1,1.479-.127,2.463,2.463,0,0,1,1.648.512Zm-2.681,7.323h1.208v1.3h-1.208Z" transform="translate(-154.759 -377.353)" fill="#fff"/>
    <path id="Path_59000" data-name="Path 59000" d="M209.878,386.546h-1.66a5.1,5.1,0,0,1-.645,2.431,1.989,1.989,0,0,1-1.813.864,18.765,18.765,0,0,1-2.1-.214V388.5a13.456,13.456,0,0,0,2.006.214,1.461,1.461,0,0,0,.729-.16,1.028,1.028,0,0,0,.425-.63,4.951,4.951,0,0,0,.145-1.374h-1.819a2.052,2.052,0,0,1-2.024-.943,5.087,5.087,0,0,1-.485-2.337,6.789,6.789,0,0,1,.286-2.1,2.037,2.037,0,0,1,.9-1.148,3.434,3.434,0,0,1,1.72-.364,13.176,13.176,0,0,1,1.4.087c.527.057.958.12,1.3.193v5.482h1.633v1.13Zm-5.657-1.747a1.363,1.363,0,0,0,1.34.617h1.422v-4.539a8.091,8.091,0,0,0-1.154-.093,1.748,1.748,0,0,0-1.494.563,3.28,3.28,0,0,0-.431,1.88,3.387,3.387,0,0,0,.319,1.572Z" transform="translate(-172.865 -377.088)" fill="#fff"/>
    <path id="Path_59001" data-name="Path 59001" d="M226.67,398.77h3.319v1.13H226.67Z" transform="translate(-189.657 -390.441)" fill="#fff"/>
    <path id="Path_59002" data-name="Path 59002" d="M240.585,371.123v9.452H237.69v-1.13h1.633V371.12h1.262Z" transform="translate(-197.357 -371.12)" fill="#fff"/>
    <path id="Path_59003" data-name="Path 59003" d="M254.97,371.13h1.262v9.452H254.97Z" transform="translate(-209.432 -371.127)" fill="#fff"/>
    <path id="Path_59004" data-name="Path 59004" d="M283.255,380.6h-1.539v.425a2.593,2.593,0,0,1-.458,1.527,2.935,2.935,0,0,1-1.247,1,4.661,4.661,0,0,1-3.606-.033,3.194,3.194,0,0,1-1.3-1.042,2.518,2.518,0,0,1-.47-1.488,32.319,32.319,0,0,1,.518-4.024l1.2.066c-.133.84-.247,1.633-.337,2.371a14.577,14.577,0,0,0-.139,1.482,1.65,1.65,0,0,0,.3.964,2.042,2.042,0,0,0,.843.678,2.837,2.837,0,0,0,1.187.247,2.489,2.489,0,0,0,1.6-.512,1.667,1.667,0,0,0,.645-1.374V371.15h1.262v8.326h1.539v1.13Z" transform="translate(-223.177 -371.141)" fill="#fff"/>
    <path id="Path_59005" data-name="Path 59005" d="M308.457,385.989v1.13H303.24v-1.13h1.979V380.48h1.262v5.509h1.979Zm-4.075,2.19h1.13v1.274h-1.13Zm1.78,0h1.114v1.274h-1.114Z" transform="translate(-243.163 -377.661)" fill="#fff"/>
    <path id="Path_59006" data-name="Path 59006" d="M320.56,398.77h3.319v1.13H320.56Z" transform="translate(-255.266 -390.441)" fill="#fff"/>
    <path id="Path_59007" data-name="Path 59007" d="M331.58,398.77H334.9v1.13H331.58Z" transform="translate(-262.966 -390.441)" fill="#fff"/>
    <path id="Path_59008" data-name="Path 59008" d="M351.813,381.06a4.2,4.2,0,0,1,.7,2.41V386.8H342.59v-1.13h1.886v-5.509h1.247v2.124a12.712,12.712,0,0,1,1.081-1.208,3.917,3.917,0,0,1,1.136-.756,3.612,3.612,0,0,1,1.5-.292,2.652,2.652,0,0,1,2.371,1.03Zm-6.088,2.822v1.792h5.536v-1.991a3,3,0,0,0-.518-1.8,1.734,1.734,0,0,0-1.5-.723q-1.821,0-3.518,2.723Z" transform="translate(-270.66 -377.346)" fill="#fff"/>
    <path id="Path_59009" data-name="Path 59009" d="M387.475,386.546h-1.66a5.1,5.1,0,0,1-.645,2.431,1.989,1.989,0,0,1-1.813.864,18.764,18.764,0,0,1-2.1-.214V388.5a13.456,13.456,0,0,0,2.006.214,1.461,1.461,0,0,0,.729-.16,1.028,1.028,0,0,0,.425-.63,4.931,4.931,0,0,0,.148-1.374h-1.819a2.052,2.052,0,0,1-2.024-.943,5.088,5.088,0,0,1-.485-2.337,6.789,6.789,0,0,1,.286-2.1,2.037,2.037,0,0,1,.9-1.148,3.435,3.435,0,0,1,1.72-.364,13.177,13.177,0,0,1,1.4.087c.527.057.958.12,1.3.193v5.482h1.633v1.13Zm-5.657-1.747a1.363,1.363,0,0,0,1.34.617h1.422v-4.539a8.092,8.092,0,0,0-1.154-.093,1.748,1.748,0,0,0-1.494.563,3.281,3.281,0,0,0-.431,1.88,3.387,3.387,0,0,0,.319,1.572Z" transform="translate(-296.969 -377.088)" fill="#fff"/>
    <path id="Path_59010" data-name="Path 59010" d="M404.26,398.77h3.319v1.13H404.26Z" transform="translate(-313.754 -390.441)" fill="#fff"/>
    <path id="Path_59011" data-name="Path 59011" d="M415.28,398.77H418.6v1.13H415.28Z" transform="translate(-321.455 -390.441)" fill="#fff"/>
    <path id="Path_59012" data-name="Path 59012" d="M431.527,380.133v1.13H426.31v-1.13h1.979v-5.509h1.262v5.509h1.979Zm-4.063-8.033h1.13v1.289h-1.13Zm1.78,0h1.115v1.289h-1.115Z" transform="translate(-329.162 -371.805)" fill="#fff"/>
    <path id="Path_59013" data-name="Path 59013" d="M446.525,371.123v9.452H443.63v-1.13h1.633V371.12h1.262Z" transform="translate(-341.265 -371.12)" fill="#fff"/>
  </g>
  <path id="Path_59014" data-name="Path 59014" d="M433.31,285.95l-6.47,2.849-11.72,5.142v-5.208l1.952-2.783Z" transform="translate(-290.08 -199.818)" fill="#275d89"/>
  <path id="Path_59015" data-name="Path 59015" d="M560.21,203.71l-6.473,2.852L542.02,211.7V206.5l1.949-2.786Z" transform="translate(-378.755 -142.349)" fill="#275d89"/>
  <path id="Path_59016" data-name="Path 59016" d="M35.57,285.95l6.47,2.849,11.72,5.142v-5.208l-1.952-2.783Z" transform="translate(-24.856 -199.818)" fill="#275d89"/>
  <path id="Path_59017" data-name="Path 59017" d="M33.919,253.733l-1.178,1.693H16.5l5.208-2.292,1.262-.557,7.756-3.407Z" transform="translate(-11.53 -174.116)" fill="#49b96d"/>
  <path id="Path_59018" data-name="Path 59018" d="M208.55,203.43l-6.47,2.849-.621.28-11.1,4.865v-3.47a23.413,23.413,0,0,0,1.949-4.521H208.55Z" transform="translate(-133.021 -142.154)" fill="#275d89"/>
  <path id="Path_59019" data-name="Path 59019" d="M176.61,172.176H191.5a21.769,21.769,0,0,1-.193-2.913,22.678,22.678,0,0,1,.28-3.663l-8.163,3.578-.6.256-.084.042-1.093.473-5.033,2.229Z" transform="translate(-123.412 -115.719)" fill="#49b96d"/>
  <path id="Path_59020" data-name="Path 59020" d="M572.61,285.95l-6.47,2.849-11.72,5.142v-5.208l1.949-2.783Z" transform="translate(-387.42 -199.818)" fill="#275d89"/>
  <path id="Path_59021" data-name="Path 59021" d="M363.48,285.95l-6.47,2.849-11.72,5.142v-5.208l1.952-2.783Z" transform="translate(-241.283 -199.818)" fill="#275d89"/>
  <path id="Path_59022" data-name="Path 59022" d="M293.58,285.95l-6.47,2.849-11.72,5.142v-5.208l1.949-2.783Z" transform="translate(-192.438 -199.818)" fill="#275d89"/>
  <path id="Path_59023" data-name="Path 59023" d="M223.82,285.95l-6.47,2.849-11.72,5.142v-5.208l1.949-2.783Z" transform="translate(-143.691 -199.818)" fill="#275d89"/>
  <path id="Path_59024" data-name="Path 59024" d="M103.981,203.43a32.018,32.018,0,0,1-.88,3.13,33.941,33.941,0,0,1-4.22,8.615c-.28.428-.557.813-.837,1.2L81.333,240.241l-6.75,9.642H72.76l-2.72-1.907L67.3,249.883H65.477l-6.75-9.642L50.35,228.286H62.134l7.886,11.271,7.886-11.271,3.386-4.819L90.1,210.891c.021-.021.021-.042.042-.063l.021-.042c.021-.042.042-.063.063-.108.235-.3.449-.6.687-.943.386-.578.75-1.157,1.093-1.777a23.413,23.413,0,0,0,1.949-4.521h10.027Z" transform="translate(-35.184 -142.154)" fill="#275d89"/>
  <path id="Path_59025" data-name="Path 59025" d="M69.656,96.929v.687c-.021.75-.063,1.5-.108,2.229H59.8a21.768,21.768,0,0,0,.193-2.913,22.678,22.678,0,0,0-.28-3.663,5.944,5.944,0,0,0-.108-.642A25.158,25.158,0,1,0,13.75,110.691c.343.515.708,1.03,1.072,1.521l4.371,6.235,3.193,4.563,1.178,1.693H11.784l-1.605-2.292-3.193-4.563c-.407-.557-.813-1.136-1.22-1.714A34.833,34.833,0,1,1,69.656,96.929Z" transform="translate(0 -43.388)" fill="#fff"/>
  <path id="Path_59026" data-name="Path 59026" d="M53.182,145.892a15.5,15.5,0,0,0,1.178,5.934H49.24a20.419,20.419,0,0,1-.88-5.934,20.18,20.18,0,0,1,5.377-13.732h7.841a15.415,15.415,0,0,0-8.4,13.732Z" transform="translate(-33.793 -92.351)" fill="#fff"/>
  <path id="Path_59027" data-name="Path 59027" d="M356.51,339.111l6.47-2.849,11.72-5.142v5.205l-1.949,2.786Z" transform="translate(-249.124 -231.382)" fill="#275d89"/>
  <path id="Path_59028" data-name="Path 59028" d="M107.862,8.4l-5.871,8.4L96.1,8.4,101.992,0Z" transform="translate(-67.153)" fill="#275d89"/>
  <path id="Path_59029" data-name="Path 59029" d="M498.44,370.75l-6.47,2.849-11.72,5.142v-5.2l1.949-2.786Z" transform="translate(-335.591 -259.075)" fill="#49b96d"/>
  <path id="Path_59030" data-name="Path 59030" d="M482.844,370.75l-6.768,9.663H464.31l6.75-9.663Z" transform="translate(-324.453 -259.075)" fill="#fff"/>
</svg>
