<svg id="بارسل" xmlns="http://www.w3.org/2000/svg" width="101.123" height="68.005" viewBox="0 0 101.123 68.005">
  <path id="Path_58986" data-name="Path 58986" d="M125.028,325.64l-3.7,5.265H81.856L78.17,325.64Z" transform="translate(-65.313 -272.079)" fill="#275d89"/>
  <path id="Path_58987" data-name="Path 58987" d="M458.883,330.636l-.169.234H440.79l3.679-5.27h11.5l-3.535,5.036Z" transform="translate(-368.29 -272.046)" fill="#275d89"/>
  <path id="Path_58988" data-name="Path 58988" d="M525.306,285.95l-4.41,6.281-.164.247-3.521,5.03-.176.235H510.6l3.7-5.265,4.574-6.528Z" transform="translate(-426.617 -238.917)" fill="#275d89"/>
  <path id="Path_58989" data-name="Path 58989" d="M471.773,203.71l-.077.118-12.614,18.014-3.691,5.268H448.96l3.679-5.268,12.691-18.132Z" transform="translate(-375.116 -170.204)" fill="#275d89"/>
  <path id="Path_58990" data-name="Path 58990" d="M252.284,285.95h6.443L250.8,297.273l-4.318-3.026Z" transform="translate(-205.939 -238.917)" fill="#275d89"/>
  <path id="Path_58991" data-name="Path 58991" d="M182.428,285.95h6.431l-7.931,11.323-4.318-3.026Z" transform="translate(-147.561 -238.917)" fill="#275d89"/>
  <path id="Path_58992" data-name="Path 58992" d="M322.224,285.95h6.431l-7.918,11.31-4.318-3.026Z" transform="translate(-264.376 -238.917)" fill="#275d89"/>
  <path id="Path_58993" data-name="Path 58993" d="M398.362,285.95l-1.089,1.556-6.855,9.791-4.318-3.007,4.773-6.821,1.066-1.52Z" transform="translate(-322.595 -238.917)" fill="#275d89"/>
  <path id="Path_58994" data-name="Path 58994" d="M382.413,317.6l-1.089,1.556-1.5,2.142-.574.819-1.451,2.071H371.38l1.229-1.755.572-.819,1.743-2.492,1.064-1.521Z" transform="translate(-310.296 -265.362)" fill="#275d89"/>
  <g id="Group_53461" data-name="Group 53461" transform="translate(17.071 61.041)">
    <path id="Path_58995" data-name="Path 58995" d="M108.56,376.9v3.625h-2.834a4.469,4.469,0,0,1-1.087-.109,1.144,1.144,0,0,1-.635-.38,1.2,1.2,0,0,1-.214-.758,4.977,4.977,0,0,1,.069-.747c.046-.294.1-.576.156-.841l.544.03-.066.536a7.177,7.177,0,0,0-.087.863.674.674,0,0,0,.28.605,1.943,1.943,0,0,0,1,.184h2.183v-3.008h.689Zm-3.089-.7h.617v.7h-.617Zm.972,0h.609v.7h-.609Z" transform="translate(-103.79 -375.364)" fill="#31c46c"/>
    <path id="Path_58996" data-name="Path 58996" d="M141.4,375.685v.617H140.02V371.14h.689v4.546h.689Z" transform="translate(-134.061 -371.137)" fill="#31c46c"/>
    <path id="Path_58997" data-name="Path 58997" d="M151.239,383.488v.617H148.39v-.617h1.081V380.48h.689v3.008h1.081Zm-1.755,1.2h.66v.711h-.66Z" transform="translate(-141.054 -378.94)" fill="#31c46c"/>
    <path id="Path_58998" data-name="Path 58998" d="M165.71,398.77h1.813v.617H165.71Z" transform="translate(-155.526 -394.222)" fill="#31c46c"/>
    <path id="Path_58999" data-name="Path 58999" d="M179.942,380.318a1.189,1.189,0,0,1,.326.946v2.472H176.73v-.617h2.857v-1.783a.622.622,0,0,0-.711-.7q-.318,0-1.5.117l-.021-.485c.262-.062.554-.117.882-.163a5.98,5.98,0,0,1,.808-.069,1.345,1.345,0,0,1,.9.28Zm-1.464,4h.66v.711h-.66Z" transform="translate(-164.733 -378.573)" fill="#31c46c"/>
    <path id="Path_59000" data-name="Path 59000" d="M206.592,383.42h-.906a2.786,2.786,0,0,1-.352,1.327,1.086,1.086,0,0,1-.99.472,10.252,10.252,0,0,1-1.145-.117v-.617a7.347,7.347,0,0,0,1.1.117.8.8,0,0,0,.4-.087.561.561,0,0,0,.232-.344,2.7,2.7,0,0,0,.079-.75h-.993a1.12,1.12,0,0,1-1.105-.515,2.778,2.778,0,0,1-.265-1.276,3.707,3.707,0,0,1,.156-1.145,1.112,1.112,0,0,1,.493-.627,1.875,1.875,0,0,1,.939-.2,7.2,7.2,0,0,1,.765.048c.288.031.523.066.707.105v2.993h.891v.617Zm-3.089-.954a.744.744,0,0,0,.732.337h.776v-2.479a4.421,4.421,0,0,0-.63-.051.954.954,0,0,0-.816.308,1.791,1.791,0,0,0-.235,1.026,1.849,1.849,0,0,0,.174.859Z" transform="translate(-186.381 -378.255)" fill="#31c46c"/>
    <path id="Path_59001" data-name="Path 59001" d="M226.67,398.77h1.813v.617H226.67Z" transform="translate(-206.459 -394.222)" fill="#31c46c"/>
    <path id="Path_59002" data-name="Path 59002" d="M239.271,371.122v5.161H237.69v-.617h.891V371.12h.689Z" transform="translate(-215.666 -371.12)" fill="#31c46c"/>
    <path id="Path_59003" data-name="Path 59003" d="M254.97,371.13h.689v5.161h-.689Z" transform="translate(-230.104 -371.128)" fill="#31c46c"/>
    <path id="Path_59004" data-name="Path 59004" d="M279.344,376.31h-.84v.232a1.416,1.416,0,0,1-.25.834,1.6,1.6,0,0,1-.681.544,2.545,2.545,0,0,1-1.969-.018,1.744,1.744,0,0,1-.707-.569,1.375,1.375,0,0,1-.257-.812,17.654,17.654,0,0,1,.283-2.2l.653.036c-.072.459-.135.891-.184,1.294a7.958,7.958,0,0,0-.076.809.9.9,0,0,0,.166.526,1.115,1.115,0,0,0,.461.37,1.549,1.549,0,0,0,.648.135,1.359,1.359,0,0,0,.873-.28.91.91,0,0,0,.352-.75V371.15h.689V375.7h.84v.617Z" transform="translate(-246.539 -371.145)" fill="#31c46c"/>
    <path id="Path_59005" data-name="Path 59005" d="M306.089,383.488v.617H303.24v-.617h1.081V380.48h.689v3.008h1.081Zm-2.225,1.2h.617v.7h-.617Zm.972,0h.609v.7h-.609Z" transform="translate(-270.435 -378.94)" fill="#31c46c"/>
    <path id="Path_59006" data-name="Path 59006" d="M320.56,398.77h1.813v.617H320.56Z" transform="translate(-284.906 -394.222)" fill="#31c46c"/>
    <path id="Path_59007" data-name="Path 59007" d="M331.58,398.77h1.813v.617H331.58Z" transform="translate(-294.113 -394.222)" fill="#31c46c"/>
    <path id="Path_59008" data-name="Path 59008" d="M347.626,380.592a2.292,2.292,0,0,1,.38,1.316v1.819H342.59v-.617h1.03V380.1h.681v1.16a6.938,6.938,0,0,1,.59-.66,2.137,2.137,0,0,1,.62-.413,1.973,1.973,0,0,1,.819-.16,1.448,1.448,0,0,1,1.294.563Zm-3.324,1.541v.979h3.023v-1.087a1.639,1.639,0,0,0-.283-.982.947.947,0,0,0-.819-.395q-.994,0-1.921,1.487Z" transform="translate(-303.313 -378.564)" fill="#31c46c"/>
    <path id="Path_59009" data-name="Path 59009" d="M384.191,383.42h-.906a2.786,2.786,0,0,1-.352,1.327,1.086,1.086,0,0,1-.99.472,10.251,10.251,0,0,1-1.145-.117v-.617a7.347,7.347,0,0,0,1.1.117.8.8,0,0,0,.4-.087.561.561,0,0,0,.232-.344,2.692,2.692,0,0,0,.081-.75h-.993a1.12,1.12,0,0,1-1.105-.515,2.778,2.778,0,0,1-.265-1.276,3.707,3.707,0,0,1,.156-1.145,1.112,1.112,0,0,1,.493-.627,1.876,1.876,0,0,1,.939-.2,7.2,7.2,0,0,1,.765.048c.288.031.523.066.707.105v2.993h.891v.617Zm-3.089-.954a.744.744,0,0,0,.732.337h.776v-2.479a4.42,4.42,0,0,0-.63-.051.954.954,0,0,0-.816.308,1.791,1.791,0,0,0-.235,1.026,1.849,1.849,0,0,0,.174.859Z" transform="translate(-334.77 -378.255)" fill="#31c46c"/>
    <path id="Path_59010" data-name="Path 59010" d="M404.26,398.77h1.813v.617H404.26Z" transform="translate(-354.839 -394.222)" fill="#31c46c"/>
    <path id="Path_59011" data-name="Path 59011" d="M415.28,398.77h1.813v.617H415.28Z" transform="translate(-364.047 -394.222)" fill="#31c46c"/>
    <path id="Path_59012" data-name="Path 59012" d="M429.159,376.487v.617H426.31v-.617h1.081v-3.008h.689v3.008h1.081ZM426.94,372.1h.617v.7h-.617Zm.972,0h.609v.7h-.609Z" transform="translate(-373.262 -371.939)" fill="#31c46c"/>
    <path id="Path_59013" data-name="Path 59013" d="M445.211,371.122v5.161H443.63v-.617h.891V371.12h.689Z" transform="translate(-387.734 -371.12)" fill="#31c46c"/>
  </g>
  <path id="Path_59014" data-name="Path 59014" d="M425.053,285.95l-3.533,1.556-6.4,2.808V287.47l1.066-1.52Z" transform="translate(-346.842 -238.917)" fill="#275d89"/>
  <path id="Path_59015" data-name="Path 59015" d="M551.953,203.71l-3.535,1.558-6.4,2.808v-2.844l1.064-1.521Z" transform="translate(-452.869 -170.204)" fill="#275d89"/>
  <path id="Path_59016" data-name="Path 59016" d="M35.57,285.95l3.533,1.556,6.4,2.808V287.47l-1.066-1.52Z" transform="translate(-29.72 -238.917)" fill="#275d89"/>
  <path id="Path_59017" data-name="Path 59017" d="M26.012,251.662l-.643.924H16.5l2.844-1.252.689-.3,4.235-1.86Z" transform="translate(-13.786 -208.187)" fill="#49b96d"/>
  <path id="Path_59018" data-name="Path 59018" d="M200.293,203.43l-3.533,1.556-.339.153L190.36,207.8V205.9a12.785,12.785,0,0,0,1.064-2.469h8.869Z" transform="translate(-159.05 -169.97)" fill="#275d89"/>
  <path id="Path_59019" data-name="Path 59019" d="M176.61,169.191h8.132a11.886,11.886,0,0,1-.105-1.59,12.384,12.384,0,0,1,.153-2l-4.457,1.954-.327.14-.046.023-.6.258-2.748,1.217Z" transform="translate(-147.561 -138.362)" fill="#49b96d"/>
  <path id="Path_59020" data-name="Path 59020" d="M564.353,285.95l-3.533,1.556-6.4,2.808V287.47l1.064-1.52Z" transform="translate(-463.23 -238.917)" fill="#275d89"/>
  <path id="Path_59021" data-name="Path 59021" d="M355.223,285.95l-3.533,1.556-6.4,2.808V287.47l1.066-1.52Z" transform="translate(-288.497 -238.917)" fill="#275d89"/>
  <path id="Path_59022" data-name="Path 59022" d="M285.323,285.95l-3.533,1.556-6.4,2.808V287.47l1.064-1.52Z" transform="translate(-230.094 -238.917)" fill="#275d89"/>
  <path id="Path_59023" data-name="Path 59023" d="M215.563,285.95l-3.533,1.556-6.4,2.808V287.47l1.064-1.52Z" transform="translate(-171.808 -238.917)" fill="#275d89"/>
  <path id="Path_59024" data-name="Path 59024" d="M79.635,203.43a17.486,17.486,0,0,1-.48,1.709,18.534,18.534,0,0,1-2.3,4.7c-.153.234-.3.444-.457.655l-9.125,13.033L63.582,228.8h-1L61.1,227.755l-1.5,1.041h-1l-3.686-5.265L50.35,217h6.434l4.306,6.155L65.4,217l1.849-2.632,4.809-6.867c.012-.012.012-.023.023-.035l.012-.023c.012-.023.023-.035.035-.059.128-.164.245-.327.375-.515.211-.316.41-.632.6-.97a12.785,12.785,0,0,0,1.064-2.469h5.475Z" transform="translate(-42.069 -169.97)" fill="#275d89"/>
  <path id="Path_59025" data-name="Path 59025" d="M38.036,81.114v.375c-.012.41-.035.819-.059,1.217H32.652a11.887,11.887,0,0,0,.105-1.591,12.383,12.383,0,0,0-.153-2,3.245,3.245,0,0,0-.059-.35A13.738,13.738,0,1,0,7.508,88.629c.188.281.387.563.586.831l2.387,3.4,1.743,2.492.643.924H6.434l-.877-1.252L3.814,92.537c-.222-.3-.444-.62-.666-.936A19.021,19.021,0,1,1,38.036,81.114Z" transform="translate(0 -51.878)" fill="#31c46c"/>
  <path id="Path_59026" data-name="Path 59026" d="M50.993,139.659a8.466,8.466,0,0,0,.643,3.24h-2.8a11.15,11.15,0,0,1-.48-3.24,11.019,11.019,0,0,1,2.936-7.5h4.281a8.417,8.417,0,0,0-4.586,7.5Z" transform="translate(-40.406 -110.423)" fill="#31c46c"/>
  <path id="Path_59027" data-name="Path 59027" d="M356.51,335.484l3.533-1.556,6.4-2.808v2.842l-1.064,1.521Z" transform="translate(-297.872 -276.658)" fill="#275d89"/>
  <path id="Path_59028" data-name="Path 59028" d="M102.523,4.586,99.317,9.173,96.1,4.586,99.317,0Z" transform="translate(-80.294)" fill="#275d89"/>
  <path id="Path_59029" data-name="Path 59029" d="M490.183,370.75l-3.533,1.556-6.4,2.808v-2.842l1.064-1.521Z" transform="translate(-401.259 -309.77)" fill="#49b96d"/>
  <path id="Path_59030" data-name="Path 59030" d="M474.43,370.75l-3.7,5.276H464.31L468,370.75Z" transform="translate(-387.941 -309.77)" fill="#31c46c"/>
</svg>
