<svg xmlns="http://www.w3.org/2000/svg" width="273.549" height="162.998" viewBox="0 0 273.549 162.998">
  <g id="Group_52587" data-name="Group 52587" transform="translate(-82.585 -261.985)">
    <g id="Group_52601" data-name="Group 52601" transform="translate(82.585 261.985)">
      <path id="Path_48269" data-name="Path 48269" d="M72.8,287.4s-38.833-16.377-42.58-59.889S72.8,181.661,72.8,181.661s33.721-.374,63.166-6.08,62.662-27.136,62.662-27.136,55.245-26.851,81.918,21.43-1.258,102.362-31.571,112.64C224,290.983,160.278,312.905,72.8,287.4Z" transform="translate(-30 -141)" fill="#b3ffd1"/>
      <path id="Path_48270" data-name="Path 48270" d="M277.03,297.894l-32.724-79.347a15.494,15.494,0,0,0-14.321-9.59H119.322A15.5,15.5,0,0,0,105,218.547L72.276,297.894a15.492,15.492,0,0,0,14.322,21.4h176.11A15.492,15.492,0,0,0,277.03,297.894Z" transform="translate(-39.248 -156.296)" fill="#0e7f3d"/>
      <path id="Path_48271" data-name="Path 48271" d="M277.03,291.733l-32.724-79.347a15.493,15.493,0,0,0-14.321-9.589H119.322A15.494,15.494,0,0,0,105,212.386L72.276,291.733a15.492,15.492,0,0,0,14.322,21.4h176.11A15.488,15.488,0,0,0,277.03,291.733Z" transform="translate(-39.248 -154.908)" fill="#32b768"/>
      <path id="Path_48272" data-name="Path 48272" d="M262.017,299.586c4.889,0,8.853-2.2,8.853-4.911s-3.964-4.911-8.853-4.911-8.854,2.2-8.854,4.911S257.127,299.586,262.017,299.586Z" transform="translate(-80.228 -174.483)" fill="#0e7f3d"/>
      <g id="Group_52159" data-name="Group 52159" transform="translate(36.888 45.737)">
        <path id="Path_48273" data-name="Path 48273" d="M274.268,272.1H245.838a2.285,2.285,0,0,1-2.078-1.307c-2.583-5.534-10.872-9.483-20.978-9.483h-.19l-2.636-12.006a2.314,2.314,0,0,1,2.256-2.808h37.9a2.309,2.309,0,0,0,2.309-2.31v-.125a2.309,2.309,0,0,0-2.309-2.31H220.151a2.306,2.306,0,0,1-2.257-1.816l-1.859-8.461a2.315,2.315,0,0,1,2.257-2.809h33.953a2.309,2.309,0,0,0,2.31-2.309v-.125a2.309,2.309,0,0,0-2.31-2.31H216.238a2.307,2.307,0,0,1-2.257-1.817l-4.316-19.678a2.316,2.316,0,0,0-2.756-1.764l-.125.03a2.313,2.313,0,0,0-1.763,2.755l3.877,17.671a2.314,2.314,0,0,1-2.256,2.809H155.666a2.311,2.311,0,0,1-2.263-2.779l3.789-18.324a2.307,2.307,0,0,0-1.793-2.732l-.125-.024a2.307,2.307,0,0,0-2.732,1.793l-4.186,20.224a2.312,2.312,0,0,1-2.262,1.847H127.111a.107.107,0,0,1-.1-.053.1.1,0,0,1-.012-.113l1.728-4.655a2.159,2.159,0,0,0,.136-.618,4.953,4.953,0,0,0-4.875-5.457h-18.27a2.309,2.309,0,0,0-2.31,2.31v.124a2.309,2.309,0,0,0,2.31,2.31h18.247a.122.122,0,0,1,.1.053.1.1,0,0,1,.012.113l-1.722,4.649a2.4,2.4,0,0,0-.143.618,4.953,4.953,0,0,0,4.893,5.463h17.036a2.31,2.31,0,0,1,2.262,2.779L146,233.4a2.312,2.312,0,0,1-2.262,1.847H98.4a2.308,2.308,0,0,0-2.309,2.31v.125A2.308,2.308,0,0,0,98.4,240H141.8a2.311,2.311,0,0,1,2.262,2.779l-5.688,27.492a2.313,2.313,0,0,1-2.263,1.847h-56.2a2.309,2.309,0,0,0-2.31,2.31v.125a2.309,2.309,0,0,0,2.31,2.31h54.266a2.311,2.311,0,0,1,2.263,2.779l-6.894,33.317a2.306,2.306,0,0,0,1.793,2.731l.124.024a2.307,2.307,0,0,0,2.732-1.793l7.286-35.223a2.313,2.313,0,0,1,2.262-1.847h55.97a2.285,2.285,0,0,1,2.078,1.307c2.583,5.534,10.872,9.483,20.979,9.483.2,0,.4-.006.605-.012l5.3,24.678a2.315,2.315,0,0,0,2.749,1.775l.125-.024a2.315,2.315,0,0,0,1.775-2.749l-4.667-21.732a2.3,2.3,0,0,1,1.746-2.737c6.484-1.42,11.442-4.614,13.337-8.664a2.306,2.306,0,0,1,2.084-1.324H274.25a2.309,2.309,0,0,0,2.31-2.309v-.125A2.279,2.279,0,0,0,274.268,272.1Zm-120.55-43.441H208.7a2.306,2.306,0,0,1,2.256,1.816l1.859,8.461a2.315,2.315,0,0,1-2.257,2.809H188.538a9.583,9.583,0,0,0-9.583,9.584v18.455a2.309,2.309,0,0,1-2.31,2.309H145.7a2.31,2.31,0,0,1-2.262-2.779l8.028-38.815A2.3,2.3,0,0,1,153.718,228.661Zm46,43.441h-13.7a2.308,2.308,0,0,1-2.309-2.31V251.337a4.833,4.833,0,0,1,4.833-4.834H212.61a2.307,2.307,0,0,1,2.257,1.817l2.4,10.968a2.307,2.307,0,0,1-1.769,2.755c-6.662,1.378-11.769,4.619-13.7,8.74A2.3,2.3,0,0,1,199.719,272.1Zm23.063,10.789c-8.076,0-17.071-3.456-17.071-8.414s9-8.414,17.071-8.414,17.071,3.456,17.071,8.414S230.851,282.891,222.781,282.891Z" transform="translate(-77.602 -200.021)" fill="#fff"/>
      </g>
      <path id="Path_48274" data-name="Path 48274" d="M189.982,248.817c28.041,0,50.774-10.53,50.774-23.52s-22.733-23.519-50.774-23.519-50.774,10.53-50.774,23.519S161.94,248.817,189.982,248.817Z" transform="translate(-54.58 -154.679)" fill="#fff" opacity="0.3"/>
      <path id="Path_48275" data-name="Path 48275" d="M195.081,243.045c18.345,0,33.216-6.888,33.216-15.385s-14.872-15.385-33.216-15.385-33.216,6.888-33.216,15.385S176.737,243.045,195.081,243.045Z" transform="translate(-59.679 -157.042)" fill="#fff" opacity="0.35"/>
      <path id="Path_48276" data-name="Path 48276" d="M199.362,238.2c10.205,0,18.478-3.834,18.478-8.562s-8.273-8.563-18.478-8.563-18.479,3.834-18.479,8.563S189.156,238.2,199.362,238.2Z" transform="translate(-63.96 -159.023)" fill="#fff" opacity="0.35"/>
      <path id="Path_48277" data-name="Path 48277" d="M197.907,153.8a23.49,23.49,0,0,0-23.49,23.5c0,5.131,2.185,9.9,4.435,13.735l13.016,21.922a6.933,6.933,0,0,0,12.078,0l13.016-21.922c2.25-3.836,4.436-8.6,4.436-13.735A23.49,23.49,0,0,0,197.907,153.8Zm0,32.438a9.308,9.308,0,1,1,9.3-9.311A9.309,9.309,0,0,1,197.907,186.241Z" transform="translate(-62.504 -143.881)" fill="#e06738"/>
      <path id="Path_48278" data-name="Path 48278" d="M302.205,261.694H274.754a1.511,1.511,0,0,1-1.508-1.509V237.753h30.467v22.433A1.507,1.507,0,0,1,302.205,261.694Z" transform="translate(-84.748 -162.776)" fill="#e06738"/>
      <path id="Path_48279" data-name="Path 48279" d="M296.6,265.352H286.239V255.63c0-.621.678-1.122,1.519-1.122h7.324c.841,0,1.519.5,1.519,1.122Z" transform="translate(-87.673 -166.548)" fill="#fff"/>
      <path id="Path_48280" data-name="Path 48280" d="M300.975,230.88h-27.19l-5.433,8.069h38.061Z" transform="translate(-83.647 -161.23)" fill="#edb82c"/>
      <path id="Path_48281" data-name="Path 48281" d="M271.3,246.138h-.475a2.481,2.481,0,0,1-2.482-2.482v-2.363h5.439v2.363A2.481,2.481,0,0,1,271.3,246.138Z" transform="translate(-83.644 -163.573)" fill="#edb82c"/>
      <path id="Path_48282" data-name="Path 48282" d="M278.389,246.138h-.475a2.553,2.553,0,0,1-2.553-2.553v-2.291H280.8v2.434A2.412,2.412,0,0,1,278.389,246.138Z" transform="translate(-85.224 -163.573)" fill="#fdf0b9"/>
      <path id="Path_48283" data-name="Path 48283" d="M280.8,230.879h-5.438v8.07H280.8Z" transform="translate(-85.224 -161.229)" fill="#fdf0b9"/>
      <path id="Path_48284" data-name="Path 48284" d="M294.837,230.879H289.4v8.07h5.439Z" transform="translate(-88.384 -161.229)" fill="#fdf0b9"/>
      <path id="Path_48285" data-name="Path 48285" d="M308.867,230.879h-5.439v8.07h5.439Z" transform="translate(-91.541 -161.229)" fill="#fdf0b9"/>
      <path id="Path_48286" data-name="Path 48286" d="M285.337,246.138h-.475a2.481,2.481,0,0,1-2.482-2.482v-2.363h5.438v2.363A2.48,2.48,0,0,1,285.337,246.138Z" transform="translate(-86.804 -163.573)" fill="#edb82c"/>
      <path id="Path_48287" data-name="Path 48287" d="M292.347,246.138h-.475a2.481,2.481,0,0,1-2.482-2.482v-2.363h5.439v2.363A2.477,2.477,0,0,1,292.347,246.138Z" transform="translate(-88.382 -163.573)" fill="#fdf0b9"/>
      <path id="Path_48288" data-name="Path 48288" d="M299.366,246.138h-.475a2.481,2.481,0,0,1-2.482-2.482v-2.363h5.439v2.363A2.481,2.481,0,0,1,299.366,246.138Z" transform="translate(-89.962 -163.573)" fill="#edb82c"/>
      <path id="Path_48289" data-name="Path 48289" d="M306.385,246.138h-.475a2.481,2.481,0,0,1-2.482-2.482v-2.363h5.439v2.363A2.481,2.481,0,0,1,306.385,246.138Z" transform="translate(-91.541 -163.573)" fill="#fdf0b9"/>
      <path id="Path_48290" data-name="Path 48290" d="M313.4,246.138h-.475a2.481,2.481,0,0,1-2.482-2.482v-2.363h5.439v2.363A2.481,2.481,0,0,1,313.4,246.138Z" transform="translate(-93.121 -163.573)" fill="#edb82c"/>
      <path id="Path_48291" data-name="Path 48291" d="M116.5,278.028H95.165a1.5,1.5,0,0,1-1.5-1.5v-7.962a1.5,1.5,0,0,1,1.5-1.5H116.5a1.5,1.5,0,0,1,1.5,1.5v7.962A1.49,1.49,0,0,1,116.5,278.028Z" transform="translate(-44.33 -169.375)" fill="#e06738"/>
      <path id="Path_48292" data-name="Path 48292" d="M116.974,272.247H95.539V249.38h21.435ZM97.32,270.465h17.873v-19.3H97.32Z" transform="translate(-44.751 -165.393)" fill="#e06738"/>
      <path id="Path_48293" data-name="Path 48293" d="M115.1,244.247H93.412l-4.341,7.369h30.366Z" transform="translate(-43.295 -164.238)" fill="#edb82c"/>
      <path id="Path_48294" data-name="Path 48294" d="M99.013,244.246H94.673v7.363h4.341Z" transform="translate(-44.556 -164.238)" fill="#fdf0b9"/>
      <path id="Path_48295" data-name="Path 48295" d="M110.208,244.246h-4.34v7.363h4.34Z" transform="translate(-47.076 -164.238)" fill="#fdf0b9"/>
      <path id="Path_48296" data-name="Path 48296" d="M121.4,244.246h-4.34v7.363h4.34Z" transform="translate(-49.596 -164.238)" fill="#fdf0b9"/>
      <path id="Path_48297" data-name="Path 48297" d="M124.831,258.179a2.168,2.168,0,0,1-2.167-2.167v-2.257H127v2.257A2.173,2.173,0,0,1,124.831,258.179Z" transform="translate(-50.856 -166.378)" fill="#edb82c"/>
      <path id="Path_48298" data-name="Path 48298" d="M119.23,258.179a2.168,2.168,0,0,1-2.167-2.167v-2.257h4.34v2.257A2.169,2.169,0,0,1,119.23,258.179Z" transform="translate(-49.596 -166.378)" fill="#fdf0b9"/>
      <path id="Path_48299" data-name="Path 48299" d="M113.636,258.179a2.168,2.168,0,0,1-2.167-2.167v-2.257h4.34v2.257A2.172,2.172,0,0,1,113.636,258.179Z" transform="translate(-48.336 -166.378)" fill="#edb82c"/>
      <path id="Path_48300" data-name="Path 48300" d="M108.035,258.179a2.168,2.168,0,0,1-2.167-2.167v-2.257h4.34v2.257A2.17,2.17,0,0,1,108.035,258.179Z" transform="translate(-47.076 -166.378)" fill="#fdf0b9"/>
      <path id="Path_48301" data-name="Path 48301" d="M102.441,258.179a2.168,2.168,0,0,1-2.167-2.167v-2.257h4.34v2.257A2.176,2.176,0,0,1,102.441,258.179Z" transform="translate(-45.817 -166.378)" fill="#edb82c"/>
      <path id="Path_48302" data-name="Path 48302" d="M96.84,258.179a2.168,2.168,0,0,1-2.167-2.167v-2.257h4.341v2.257A2.173,2.173,0,0,1,96.84,258.179Z" transform="translate(-44.556 -166.378)" fill="#fdf0b9"/>
      <path id="Path_48303" data-name="Path 48303" d="M91.246,258.179a2.168,2.168,0,0,1-2.167-2.167v-2.257H93.42v2.257A2.177,2.177,0,0,1,91.246,258.179Z" transform="translate(-43.297 -166.378)" fill="#edb82c"/>
      <path id="Path_48304" data-name="Path 48304" d="M351.266,195.82l4.637,24.505a1.425,1.425,0,0,0,2.583.529l6-8.919,10.332-2.981a1.427,1.427,0,0,0,.285-2.625l-21.9-11.917A1.325,1.325,0,0,0,351.266,195.82Z" transform="translate(-102.303 -152.985)" fill="#edb82c"/>
      <path id="Path_48305" data-name="Path 48305" d="M273.559,176.626a7.024,7.024,0,1,0-7.025-7.025A7.024,7.024,0,0,0,273.559,176.626Z" transform="translate(-83.237 -145.856)" fill="#32b768"/>
      <path id="Path_48306" data-name="Path 48306" d="M42.227,298.944a10.462,10.462,0,1,0-10.462-10.462A10.463,10.463,0,0,0,42.227,298.944Z" transform="translate(-30.397 -171.839)" fill="#0e7f3d"/>
      <path id="Path_48307" data-name="Path 48307" d="M116.73,160.891c-.255-1.009-2.185-1.448-4.774-1.235a1.183,1.183,0,0,1-1.182-.706c-1.039-2.381-2.339-3.878-3.343-3.622s-1.449,2.185-1.235,4.774a1.184,1.184,0,0,1-.707,1.182c-2.381,1.039-3.877,2.339-3.622,3.343s2.185,1.449,4.774,1.235a1.184,1.184,0,0,1,1.182.707c1.039,2.381,2.34,3.877,3.343,3.622s1.448-2.185,1.234-4.774a1.186,1.186,0,0,1,.707-1.182C115.489,163.2,116.986,161.9,116.73,160.891Z" transform="translate(-46.169 -144.219)" fill="#edb82c"/>
    </g>
  </g>
</svg>
