<svg xmlns="http://www.w3.org/2000/svg" width="10.341" height="9.823" viewBox="0 0 10.341 9.823">
  <path id="Star" d="M8.23,6.11a.569.569,0,0,0-.165.5l.46,2.543a.561.561,0,0,1-.233.558.569.569,0,0,1-.6.041L5.4,8.561a.587.587,0,0,0-.258-.067H5a.419.419,0,0,0-.14.047l-2.29,1.2A.6.6,0,0,1,2.2,9.8a.574.574,0,0,1-.46-.657L2.2,6.6a.579.579,0,0,0-.165-.507L.17,4.28A.559.559,0,0,1,.031,3.7a.583.583,0,0,1,.46-.388L3.06,2.936a.575.575,0,0,0,.455-.315L4.647.3a.544.544,0,0,1,.1-.14L4.8.124A.361.361,0,0,1,4.88.057L4.937.036,5.025,0h.217A.581.581,0,0,1,5.7.31L6.844,2.621a.577.577,0,0,0,.429.315l2.569.372a.587.587,0,0,1,.47.388.561.561,0,0,1-.15.584Z" transform="translate(0)" fill="#ffde0a"/>
</svg>
