<svg xmlns="http://www.w3.org/2000/svg" xmlns:xlink="http://www.w3.org/1999/xlink" width="26" height="28" viewBox="0 0 26 28">
  <defs>
    <clipPath id="clip-path">
      <rect id="Rectangle_14021" data-name="Rectangle 14021" width="26" height="28" transform="translate(138 36.4)" fill="#31c46c" stroke="#31c46c" stroke-width="1"/>
    </clipPath>
  </defs>
  <g id="Mask_Group_1258" data-name="Mask Group 1258" transform="translate(-138 -36.4)" clip-path="url(#clip-path)">
    <g id="_-Product-Icons" data-name="ðŸ”-Product-Icons" transform="translate(135.834 35.502)">
      <g id="ic_fluent_camera_28_filled">
        <path id="_-Color" data-name="ðŸŽ¨-Color" d="M18.364,2.712a2.437,2.437,0,0,1,2.068,1.147L22.08,6.5h2.566a3.521,3.521,0,0,1,3.521,3.521V23.563a3.521,3.521,0,0,1-3.521,3.521H5.688a3.521,3.521,0,0,1-3.521-3.521V10.021A3.521,3.521,0,0,1,5.688,6.5H8.47l1.5-2.576a2.437,2.437,0,0,1,2.107-1.212Zm-3.2,7.583a5.958,5.958,0,1,0,5.958,5.958A5.958,5.958,0,0,0,15.167,10.295Zm0,1.625a4.333,4.333,0,1,1-4.333,4.333A4.333,4.333,0,0,1,15.167,11.92Z" fill="#31c46c"/>
      </g>
    </g>
  </g>
</svg>
