<svg xmlns="http://www.w3.org/2000/svg" width="218.148" height="208.232" viewBox="0 0 218.148 208.232">
  <g id="Group_52588" data-name="Group 52588" transform="translate(-102.469 -244.5)">
    <g id="Group_52602" data-name="Group 52602" transform="translate(102.469 244.5)">
      <path id="Path_49103" data-name="Path 49103" d="M967.315,233.062s-1-54.355,66.54-45.257c57.19,7.7,36.911,10.657,72.569,8.588,8.327-.48,40.912-11.786,54.045-2.11,16.51,12.156,32.78,54.4-8.61,98.094-48.754,51.457-154.974.467-154.974.467S965.664,273.36,967.315,233.062Z" transform="translate(-959.822 -115.658)" fill="#b3ffd1"/>
      <path id="Path_49104" data-name="Path 49104" d="M1078.718,359.915c45.42,0,82.238-9.46,82.238-21.128s-36.817-21.127-82.238-21.127-82.237,9.459-82.237,21.127S1033.3,359.915,1078.718,359.915Z" transform="translate(-967.867 -151.683)" fill="#0e7f3d"/>
      <path id="Path_49105" data-name="Path 49105" d="M1075.765,351.284c49.718,0,90.014-9.459,90.014-21.127s-40.3-21.128-90.014-21.128-90.011,9.46-90.011,21.128S1026.054,351.284,1075.765,351.284Z" transform="translate(-964.915 -149.308)" fill="#32b768"/>
      <path id="Path_49106" data-name="Path 49106" d="M1126.514,294.813c0,20.354-28.831,18.39-64.387,18.39s-64.388,1.957-64.388-18.39,28.824-36.849,64.388-36.849S1126.514,274.466,1126.514,294.813Z" transform="translate(-968.214 -135.252)" fill="#f0c7a9"/>
      <g id="Group_52215" data-name="Group 52215" transform="translate(50.66 104.642)">
        <path id="Path_49107" data-name="Path 49107" d="M1030.393,282.386h-.8a2.689,2.689,0,0,1-2.689-2.689V248.936a2.689,2.689,0,0,1,2.689-2.689h.8a2.694,2.694,0,0,1,2.689,2.689V279.7A2.689,2.689,0,0,1,1030.393,282.386Z" transform="translate(-1026.9 -236.669)" fill="#e06738"/>
        <path id="Path_49108" data-name="Path 49108" d="M1054.883,275.946h-.8a2.689,2.689,0,0,1-2.689-2.689V242.5a2.689,2.689,0,0,1,2.689-2.689h.8a2.694,2.694,0,0,1,2.689,2.689v30.761A2.694,2.694,0,0,1,1054.883,275.946Z" transform="translate(-1033.641 -234.896)" fill="#e06738"/>
        <path id="Path_49109" data-name="Path 49109" d="M1078.486,269.17h-.8a2.689,2.689,0,0,1-2.689-2.689V235.72a2.689,2.689,0,0,1,2.689-2.689h.8a2.689,2.689,0,0,1,2.689,2.689v30.761A2.685,2.685,0,0,1,1078.486,269.17Z" transform="translate(-1040.14 -233.031)" fill="#e06738"/>
        <path id="Path_49110" data-name="Path 49110" d="M1102.386,269.17h-.8a2.689,2.689,0,0,1-2.689-2.689V235.72a2.689,2.689,0,0,1,2.689-2.689h.8a2.689,2.689,0,0,1,2.689,2.689v30.761A2.68,2.68,0,0,1,1102.386,269.17Z" transform="translate(-1046.718 -233.031)" fill="#e06738"/>
      </g>
      <path id="Path_49111" data-name="Path 49111" d="M1147,238.829c-20.206,0-36.593,5.789-36.593,12.928v55.755h27.164l.145,12.511c2.964.272,6.074.418,9.284.418,20.206,0,36.593-5.789,36.593-12.929V251.757C1183.6,244.618,1167.209,238.829,1147,238.829Z" transform="translate(-999.226 -129.986)" fill="#fdf0b9"/>
      <path id="Path_49112" data-name="Path 49112" d="M1148.38,269.172v17.456s1.964,2.968,4.935-3.559,4.74-6.374,5.189-5.628.515,3.58,2.16,4.633,3.073-2.7,4.116-3,1.718.076,2.471,1.351c1.645,2.787-.819,13.423,3.834,11.953,1.486-.473,3.776-5.336,2.689-12.922-.275-1.86.449-5.544.971-5.544s.9,2.849,2.4,2.473,2.247-3.595,3.747-3.3,4.312,2.216,5.465-2.319c.464-1.79,3.073-1.052,3.674-.223s3.711.752,4.044-2.1,0-11.758,0-11.758Z" transform="translate(-1009.677 -134.902)" fill="#edb82c"/>
      <path id="Path_49113" data-name="Path 49113" d="M1147,264.686c20.213,0,36.593-5.789,36.593-12.929s-16.379-12.928-36.593-12.928-36.593,5.788-36.593,12.928S1126.8,264.686,1147,264.686Z" transform="translate(-999.226 -129.986)" fill="#edb82c"/>
      <path id="Path_49114" data-name="Path 49114" d="M1160.92,270.709c17.191,0,31.614-4.188,35.535-9.835" transform="translate(-1013.129 -136.054)" fill="none" stroke="#fff" stroke-linecap="round" stroke-width="2.229"/>
      <g id="Group_52216" data-name="Group 52216" transform="translate(109.387 146.829)">
        <path id="Path_49115" data-name="Path 49115" d="M1184.717,315c0,7.488-17.191,13.563-38.39,13.563s-38.4-6.075-38.4-13.563a5.369,5.369,0,0,1,.717-2.626c3.472,6.227,19.025,10.929,37.68,10.929s34.2-4.7,37.672-10.929A5.448,5.448,0,0,1,1184.717,315Z" transform="translate(-1107.93 -297.057)" fill="#edb82c"/>
        <path id="Path_49116" data-name="Path 49116" d="M1184.717,293.559c0,1.839-1.029,3.587-2.914,5.19a20.888,20.888,0,0,1-4.1,2.633c-6.957,3.476-18.409,5.747-31.374,5.747s-24.432-2.271-31.382-5.747a20.887,20.887,0,0,1-4.1-2.633c-1.884-1.6-2.913-3.351-2.913-5.19a5.328,5.328,0,0,1,.558-2.319c.92,1.895,2.957,3.65,5.849,5.2h0a38.5,38.5,0,0,0,6.465,2.626,96.535,96.535,0,0,0,51.037,0,38.233,38.233,0,0,0,6.465-2.626h.007c2.884-1.547,4.921-3.3,5.841-5.2A5.24,5.24,0,0,1,1184.717,293.559Z" transform="translate(-1107.93 -291.24)" fill="#edb82c"/>
      </g>
      <g id="Group_52217" data-name="Group 52217" transform="translate(111.199 121.771)">
        <path id="Path_49117" data-name="Path 49117" d="M1110.43,256.667h36.817l-9.487,12.5v55.964h-27.33Z" transform="translate(-1110.43 -256.667)" fill="#edb82c"/>
        <path id="Path_49118" data-name="Path 49118" d="M1145.709,263.971s-2.283-.92-3.1-.648a7.789,7.789,0,0,1-2.2.648c-.515-.042-2.689-.954-3.508-.7s-3.87.954-4.414.7-3.131-1.045-3.87-.746-2.515,1.17-3.189.8-3.537-1.352-3.8-.39a22.755,22.755,0,0,0,0,4.339c0,.607-.79.349-1.015,2.689s.9,2.675.565,4.013a27.291,27.291,0,0,0-.587,7.021c.246,1.449-.174,3.232-.073,5.573s-.688,3.1-.014,5.336-.217,4.138-.275,6.033.507,2.34.732,4.9-.9,4.012-.732,4.9-.2,3.677-.015,5.127a15.173,15.173,0,0,1-.051,4.235,22.844,22.844,0,0,0,0,4.019l.065,4.837h23.431Z" transform="translate(-1113.081 -258.454)" fill="#fdf0b9"/>
        <path id="Path_49119" data-name="Path 49119" d="M1148.214,276.658s-4.979-.125-7.233,1.1-3.551-2.125-6.291-.766-4.044,2.96-3.153,6.408,1.7,3.532.891,6.178-2.986,3.288-1.935,6.339-1.051,5.7.087,8.742.4,2.529.558,4.451,2,1.665,1.355,6.715-2.58,2.305-1.928,5.754,1.551,3.692,1.384,5.134-.645,3.768-.645,3.768h18.206Z" transform="translate(-1115.875 -262.168)" fill="#f0c7a9"/>
      </g>
      <path id="Path_49120" data-name="Path 49120" d="M1113.73,256.254H1149l-4.131,4.783" transform="translate(-1000.14 -134.782)" fill="none" stroke="#fff" stroke-linecap="round" stroke-linejoin="round" stroke-width="2.229"/>
      <path id="Path_49121" data-name="Path 49121" d="M1116.74,329.263h-63.314c-.558,3.462,0,13.291,0,13.291,0,5.524,14.176,10,31.657,10s31.65-4.479,31.65-10A106.539,106.539,0,0,0,1116.74,329.263Z" transform="translate(-983.473 -154.877)" fill="#edb82c"/>
      <path id="Path_49122" data-name="Path 49122" d="M1114.061,326.751c3-.161,5.457,3,4.443,4.931s-4.762,3.372-5.994,3.734c-2.8.829-.776,5.155-6.081,3.88-2.747-.662-3.544,1.191-5.066,2.682s-5.573.446-9.371-1.191-7.1,2.982-10.77,2.536-6.965-2.236-9.378-1.344-3.8,0-6.719-2.835-5.82,1.045-8.479,0-1.645-3.58-4.566-4.917-5.82-1.839-5.82-3.5c0-3.775,5.776-4.716,5.776-4.716Z" transform="translate(-981.569 -153.981)" fill="#e06738"/>
      <path id="Path_49123" data-name="Path 49123" d="M1116.837,313.118c0,11.6-14.176,14.127-31.65,14.127s-31.657-2.529-31.657-14.127,14.176-21,31.657-21S1116.837,301.519,1116.837,313.118Z" transform="translate(-983.57 -144.653)" fill="#edb82c"/>
      <path id="Path_49124" data-name="Path 49124" d="M1075.1,300.842c.543,0,.978-.222.978-.495s-.435-.494-.978-.494-.986.221-.986.494S1074.552,300.842,1075.1,300.842Z" transform="translate(-989.234 -146.781)" fill="#fff"/>
      <path id="Path_49125" data-name="Path 49125" d="M1083.676,306.089c.543,0,.978-.221.978-.494s-.435-.5-.978-.5-.986.222-.986.5S1083.132,306.089,1083.676,306.089Z" transform="translate(-991.596 -148.227)" fill="#fff"/>
      <path id="Path_49126" data-name="Path 49126" d="M1089.318,300.842c.543,0,.986-.222.986-.495s-.442-.494-.986-.494-.979.221-.979.494S1088.775,300.842,1089.318,300.842Z" transform="translate(-993.151 -146.781)" fill="#fff"/>
      <path id="Path_49127" data-name="Path 49127" d="M1098.816,295.978c.543,0,.978-.221.978-.494s-.435-.495-.978-.495-.986.222-.986.495S1098.272,295.978,1098.816,295.978Z" transform="translate(-995.763 -145.443)" fill="#fff"/>
      <path id="Path_49128" data-name="Path 49128" d="M1106.2,302.86c.543,0,.978-.222.978-.495s-.435-.494-.978-.494-.986.221-.986.494S1105.652,302.86,1106.2,302.86Z" transform="translate(-997.795 -147.337)" fill="#fff"/>
      <path id="Path_49129" data-name="Path 49129" d="M1120.8,302.86c.543,0,.978-.222.978-.495s-.435-.494-.978-.494-.986.221-.986.494S1120.252,302.86,1120.8,302.86Z" transform="translate(-1001.813 -147.337)" fill="#fff"/>
      <path id="Path_49130" data-name="Path 49130" d="M1068.8,312.318c.544,0,.986-.221.986-.494s-.442-.494-.986-.494-.979.221-.979.494S1068.255,312.318,1068.8,312.318Z" transform="translate(-987.503 -149.94)" fill="#fff"/>
      <path id="Path_49131" data-name="Path 49131" d="M1084.838,318.7c.544,0,.986-.221.986-.494s-.442-.495-.986-.495-.979.222-.979.495S1084.295,318.7,1084.838,318.7Z" transform="translate(-991.918 -151.697)" fill="#fff"/>
      <path id="Path_49132" data-name="Path 49132" d="M1097.458,309.684c.544,0,.986-.221.986-.494s-.442-.495-.986-.495-.978.222-.978.495S1096.915,309.684,1097.458,309.684Z" transform="translate(-995.392 -149.216)" fill="#fff"/>
      <path id="Path_49133" data-name="Path 49133" d="M1106.2,316.652c.543,0,.978-.221.978-.494s-.435-.495-.978-.495-.986.222-.986.495S1105.652,316.652,1106.2,316.652Z" transform="translate(-997.795 -151.134)" fill="#fff"/>
      <path id="Path_49134" data-name="Path 49134" d="M1119.678,313.913c.543,0,.986-.222.986-.5s-.442-.494-.986-.494-.979.222-.979.494S1119.142,313.913,1119.678,313.913Z" transform="translate(-1001.508 -150.38)" fill="#fff"/>
      <path id="Path_49135" data-name="Path 49135" d="M1109.63,294.27a22.609,22.609,0,0,1,8.045,2.548" transform="translate(-999.011 -145.246)" fill="none" stroke="#fff" stroke-linecap="round" stroke-width="2"/>
      <path id="Path_49136" data-name="Path 49136" d="M1059.223,105.369c8.632-3.954,14.234-10.215,12.509-13.986s-10.125-3.623-18.764.33-14.241,10.215-12.516,13.986S1050.583,109.322,1059.223,105.369Z" transform="translate(-979.884 -88.648)" fill="#0e7f3d"/>
      <path id="Path_49137" data-name="Path 49137" d="M1061.359,105.609c4.609-2.112,7.6-5.457,6.682-7.472s-5.407-1.936-10.023.176-7.61,5.457-6.682,7.472S1056.742,107.721,1061.359,105.609Z" transform="translate(-982.919 -90.858)"/>
      <path id="Path_49138" data-name="Path 49138" d="M1068.1,98.69l-16.713,7.651,3.95,8.64,16.72-7.65Z" transform="translate(-982.981 -91.412)"/>
      <path id="Path_49139" data-name="Path 49139" d="M1145.268,140.663l-141.689,61.746a78.58,78.58,0,0,1,141.689-61.746Z" transform="translate(-969.262 -93.427)" fill="#32b768"/>
      <path id="Path_49140" data-name="Path 49140" d="M976.607,255.067c-.745-1.316-3.63-1.191-7.175.1a1.729,1.729,0,0,1-1.929-.536c-2.368-2.946-4.772-4.541-6.088-3.8s-1.191,3.629.1,7.174a1.73,1.73,0,0,1-.536,1.93c-2.94,2.368-4.542,4.771-3.8,6.088s3.629,1.191,7.174-.1a1.73,1.73,0,0,1,1.93.536c2.369,2.94,4.772,4.541,6.088,3.8s1.192-3.63-.1-7.175a1.729,1.729,0,0,1,.536-1.929C975.75,258.787,977.352,256.39,976.607,255.067Z" transform="translate(-957 -133.239)" fill="#edb82c"/>
      <path id="Path_49141" data-name="Path 49141" d="M1245.069,171.178c.377-1.463-1.79-3.371-5.247-4.9a1.714,1.714,0,0,1-1.015-1.721c.333-3.761-.3-6.583-1.761-6.959s-3.37,1.79-4.9,5.246a1.727,1.727,0,0,1-1.725,1.017c-3.761-.334-6.581.293-6.957,1.755s1.79,3.372,5.247,4.9a1.714,1.714,0,0,1,1.015,1.721c-.333,3.762.3,6.583,1.754,6.959s3.377-1.79,4.907-5.245a1.718,1.718,0,0,1,1.724-1.017C1241.872,173.268,1244.692,172.641,1245.069,171.178Z" transform="translate(-1030.332 -107.614)" fill="#e06738"/>
      <path id="Path_49142" data-name="Path 49142" d="M1242.072,305.791a7.92,7.92,0,1,0-7.922-7.92A7.924,7.924,0,0,0,1242.072,305.791Z" transform="translate(-1033.285 -144.057)" fill="#32b768"/>
    </g>
  </g>
</svg>
